<?xml version="1.0" encoding="UTF-8" standalone="no"?>
<!DOCTYPE svg PUBLIC "-//W3C//DTD SVG 1.1//EN"
 "http://www.w3.org/Graphics/SVG/1.1/DTD/svg11.dtd">
<!-- Generated by graphviz version 2.36.0 (20140111.2315)
 -->
<!-- Title: controllers_diagram Pages: 1 -->
<svg width="841pt" height="585pt"
 viewBox="0.00 0.00 841.44 585.00" xmlns="http://www.w3.org/2000/svg" xmlns:xlink="http://www.w3.org/1999/xlink">
<g id="graph0" class="graph" transform="scale(1 1) rotate(0) translate(4 581)">
<title>controllers_diagram</title>
<polygon fill="white" stroke="none" points="-4,4 -4,-581 837.44,-581 837.44,4 -4,4"/>
<!-- _diagram_info -->
<g id="node1" class="node"><title>_diagram_info</title>
<text text-anchor="start" x="666" y="-562.6" font-family="Times,serif" font-size="13.00">Controllers diagram</text>
<text text-anchor="start" x="666" y="-549.6" font-family="Times,serif" font-size="13.00">Date: Jun 04 2014 &#45; 15:29</text>
<text text-anchor="start" x="666" y="-536.6" font-family="Times,serif" font-size="13.00">Generated by RailRoady 1.1.1</text>
<text text-anchor="start" x="666" y="-523.6" font-family="Times,serif" font-size="13.00">http://railroady.prestonlee.com</text>
</g>
<!-- AdminsController -->
<g id="node2" class="node"><title>AdminsController</title>
<ellipse fill="none" stroke="black" cx="74.4638" cy="-240.46" rx="74.4275" ry="18"/>
<text text-anchor="middle" x="74.4638" y="-236.26" font-family="Times,serif" font-size="14.00">AdminsController</text>
</g>
<!-- Api::ApplicationController -->
<g id="node3" class="node"><title>Api::ApplicationController</title>
<ellipse fill="none" stroke="black" cx="489.988" cy="-137.502" rx="106.275" ry="18"/>
<text text-anchor="middle" x="489.988" y="-133.302" font-family="Times,serif" font-size="14.00">Api::ApplicationController</text>
</g>
<!-- Api::CustomersController -->
<g id="node4" class="node"><title>Api::CustomersController</title>
<ellipse fill="none" stroke="black" cx="621.274" cy="-33.9499" rx="102.433" ry="18"/>
<text text-anchor="middle" x="621.274" y="-29.7499" font-family="Times,serif" font-size="14.00">Api::CustomersController</text>
</g>
<!-- Api::ApplicationController&#45;&gt;Api::CustomersController -->
<g id="edge3" class="edge"><title>Api::ApplicationController&#45;&gt;Api::CustomersController</title>
<path fill="none" stroke="black" d="M512.557,-119.701C536.604,-100.734 574.458,-70.8761 598.56,-51.8654"/>
</g>
<!-- ApplicationController -->
<g id="node5" class="node"><title>ApplicationController</title>
<ellipse fill="none" stroke="black" cx="352.275" cy="-169.918" rx="88.417" ry="18"/>
<text text-anchor="middle" x="352.275" y="-165.718" font-family="Times,serif" font-size="14.00">ApplicationController</text>
</g>
<!-- ApplicationController&#45;&gt;AdminsController -->
<g id="edge1" class="edge"><title>ApplicationController&#45;&gt;AdminsController</title>
<path fill="none" stroke="black" d="M331.123,-187.45C317.547,-197.611 299.039,-209.537 280.48,-215.474 237.928,-229.086 188.263,-235.373 148.359,-238.238"/>
</g>
<!-- ApplicationController&#45;&gt;Api::ApplicationController -->
<g id="edge2" class="edge"><title>ApplicationController&#45;&gt;Api::ApplicationController</title>
<path fill="none" stroke="black" d="M410.279,-156.265C416.012,-154.915 421.849,-153.541 427.624,-152.182"/>
</g>
<!-- AssignmentsController -->
<g id="node6" class="node"><title>AssignmentsController</title>
<ellipse fill="none" stroke="black" cx="356.846" cy="-304.897" rx="92.3016" ry="18"/>
<text text-anchor="middle" x="356.846" y="-300.697" font-family="Times,serif" font-size="14.00">AssignmentsController</text>
</g>
<!-- ApplicationController&#45;&gt;AssignmentsController -->
<g id="edge4" class="edge"><title>ApplicationController&#45;&gt;AssignmentsController</title>
<path fill="none" stroke="black" d="M352.891,-188.121C353.764,-213.883 355.35,-260.711 356.225,-286.55"/>
</g>
<!-- ByEmployeeController -->
<g id="node7" class="node"><title>ByEmployeeController</title>
<ellipse fill="none" stroke="black" cx="219.688" cy="-367.702" rx="92.7602" ry="18"/>
<text text-anchor="middle" x="219.688" y="-363.502" font-family="Times,serif" font-size="14.00">ByEmployeeController</text>
</g>
<!-- ApplicationController&#45;&gt;ByEmployeeController -->
<g id="edge5" class="edge"><title>ApplicationController&#45;&gt;ByEmployeeController</title>
<path fill="none" stroke="black" d="M340.275,-187.818C315.095,-225.379 256.995,-312.049 231.756,-349.699"/>
</g>
<!-- ClaimsController -->
<g id="node8" class="node"><title>ClaimsController</title>
<ellipse fill="none" stroke="black" cx="83.6714" cy="-49.5484" rx="71.529" ry="18"/>
<text text-anchor="middle" x="83.6714" y="-45.3484" font-family="Times,serif" font-size="14.00">ClaimsController</text>
</g>
<!-- ApplicationController&#45;&gt;ClaimsController -->
<g id="edge6" class="edge"><title>ApplicationController&#45;&gt;ClaimsController</title>
<path fill="none" stroke="black" d="M315.49,-153.433C263.622,-130.189 169.651,-88.0782 118.734,-65.2609"/>
</g>
<!-- CostcodesController -->
<g id="node9" class="node"><title>CostcodesController</title>
<ellipse fill="none" stroke="black" cx="642.733" cy="-214.57" rx="82.6217" ry="18"/>
<text text-anchor="middle" x="642.733" y="-210.37" font-family="Times,serif" font-size="14.00">CostcodesController</text>
</g>
<!-- ApplicationController&#45;&gt;CostcodesController -->
<g id="edge7" class="edge"><title>ApplicationController&#45;&gt;CostcodesController</title>
<path fill="none" stroke="black" d="M422.958,-180.784C469.136,-187.883 529.111,-197.103 574.74,-204.117"/>
</g>
<!-- CustomersController -->
<g id="node10" class="node"><title>CustomersController</title>
<ellipse fill="none" stroke="black" cx="220.008" cy="-201.556" rx="84.0754" ry="18"/>
<text text-anchor="middle" x="220.008" y="-197.356" font-family="Times,serif" font-size="14.00">CustomersController</text>
</g>
<!-- ApplicationController&#45;&gt;CustomersController -->
<g id="edge8" class="edge"><title>ApplicationController&#45;&gt;CustomersController</title>
<path fill="none" stroke="black" d="M294.646,-183.702C288.519,-185.168 282.294,-186.657 276.185,-188.118"/>
</g>
<!-- DaysController -->
<g id="node11" class="node"><title>DaysController</title>
<ellipse fill="none" stroke="black" cx="415.152" cy="-18" rx="64.7632" ry="18"/>
<text text-anchor="middle" x="415.152" y="-13.8" font-family="Times,serif" font-size="14.00">DaysController</text>
</g>
<!-- ApplicationController&#45;&gt;DaysController -->
<g id="edge9" class="edge"><title>ApplicationController&#45;&gt;DaysController</title>
<path fill="none" stroke="black" d="M359.735,-151.894C371.836,-122.656 395.607,-65.2228 407.702,-36.0001"/>
</g>
<!-- EmployeesController -->
<g id="node12" class="node"><title>EmployeesController</title>
<ellipse fill="none" stroke="black" cx="251.467" cy="-33.2478" rx="85.5033" ry="18"/>
<text text-anchor="middle" x="251.467" y="-29.0478" font-family="Times,serif" font-size="14.00">EmployeesController</text>
</g>
<!-- ApplicationController&#45;&gt;EmployeesController -->
<g id="edge10" class="edge"><title>ApplicationController&#45;&gt;EmployeesController</title>
<path fill="none" stroke="black" d="M339.096,-152.05C319.776,-125.858 283.971,-77.3145 264.649,-51.1194"/>
</g>
<!-- ExpensesController -->
<g id="node13" class="node"><title>ExpensesController</title>
<ellipse fill="none" stroke="black" cx="85.5288" cy="-424.11" rx="79.7144" ry="18"/>
<text text-anchor="middle" x="85.5288" y="-419.91" font-family="Times,serif" font-size="14.00">ExpensesController</text>
</g>
<!-- ApplicationController&#45;&gt;ExpensesController -->
<g id="edge11" class="edge"><title>ApplicationController&#45;&gt;ExpensesController</title>
<path fill="none" stroke="black" d="M328.763,-187.351C285.666,-219.939 192.313,-293.511 125.46,-367.555 114.586,-379.598 104.076,-394.667 96.5705,-406.222"/>
</g>
<!-- HomeController -->
<g id="node14" class="node"><title>HomeController</title>
<ellipse fill="none" stroke="black" cx="638.093" cy="-407.037" rx="68.1374" ry="18"/>
<text text-anchor="middle" x="638.093" y="-402.837" font-family="Times,serif" font-size="14.00">HomeController</text>
</g>
<!-- ApplicationController&#45;&gt;HomeController -->
<g id="edge12" class="edge"><title>ApplicationController&#45;&gt;HomeController</title>
<path fill="none" stroke="black" d="M362.38,-187.891C375.507,-210.257 400.022,-248.863 427.526,-276.435 480.237,-329.274 558.218,-370.48 603.005,-391.551"/>
</g>
<!-- ProjectsController -->
<g id="node15" class="node"><title>ProjectsController</title>
<ellipse fill="none" stroke="black" cx="479.145" cy="-430.366" rx="74.8948" ry="18"/>
<text text-anchor="middle" x="479.145" y="-426.166" font-family="Times,serif" font-size="14.00">ProjectsController</text>
</g>
<!-- ApplicationController&#45;&gt;ProjectsController -->
<g id="edge13" class="edge"><title>ApplicationController&#45;&gt;ProjectsController</title>
<path fill="none" stroke="black" d="M364.439,-187.891C379.035,-209.276 404.432,-245.924 427.526,-276.435 437.358,-289.424 443.477,-290.266 450.597,-304.919 467.873,-340.479 474.907,-386.835 477.603,-412.059"/>
</g>
<!-- SessionsController -->
<g id="node16" class="node"><title>SessionsController</title>
<ellipse fill="none" stroke="black" cx="323.982" cy="-447.945" rx="76.8502" ry="18"/>
<text text-anchor="middle" x="323.982" y="-443.745" font-family="Times,serif" font-size="14.00">SessionsController</text>
</g>
<!-- ApplicationController&#45;&gt;SessionsController -->
<g id="edge14" class="edge"><title>ApplicationController&#45;&gt;SessionsController</title>
<path fill="none" stroke="black" d="M329.973,-187.563C302.807,-211.259 260.774,-256.064 263.095,-304.874 264.804,-340.799 299.843,-334.751 313.915,-367.849 322.414,-387.84 324.312,-412.986 324.487,-429.716"/>
</g>
<!-- UsersController -->
<g id="node17" class="node"><title>UsersController</title>
<ellipse fill="none" stroke="black" cx="495.72" cy="-276.594" rx="66.6925" ry="18"/>
<text text-anchor="middle" x="495.72" y="-272.394" font-family="Times,serif" font-size="14.00">UsersController</text>
</g>
<!-- ApplicationController&#45;&gt;UsersController -->
<g id="edge15" class="edge"><title>ApplicationController&#45;&gt;UsersController</title>
<path fill="none" stroke="black" d="M375.641,-187.294C402.474,-207.25 446.21,-239.775 472.838,-259.577"/>
</g>
</g>
</svg>
