<?xml version="1.0" encoding="UTF-8" standalone="no"?>
<!DOCTYPE svg PUBLIC "-//W3C//DTD SVG 1.1//EN"
 "http://www.w3.org/Graphics/SVG/1.1/DTD/svg11.dtd">
<!-- Generated by graphviz version 2.36.0 (20140111.2315)
 -->
<!-- Title: controllers_diagram Pages: 1 -->
<svg width="1119pt" height="1002pt"
 viewBox="0.00 0.00 1119.44 1002.31" xmlns="http://www.w3.org/2000/svg" xmlns:xlink="http://www.w3.org/1999/xlink">
<g id="graph0" class="graph" transform="scale(1 1) rotate(0) translate(4 998.314)">
<title>controllers_diagram</title>
<polygon fill="white" stroke="none" points="-4,4 -4,-998.314 1115.44,-998.314 1115.44,4 -4,4"/>
<!-- _diagram_info -->
<g id="node1" class="node"><title>_diagram_info</title>
<text text-anchor="start" x="944" y="-45.6" font-family="Times,serif" font-size="13.00">Controllers diagram</text>
<text text-anchor="start" x="944" y="-32.6" font-family="Times,serif" font-size="13.00">Date: Jun 04 2014 &#45; 15:29</text>
<text text-anchor="start" x="944" y="-19.6" font-family="Times,serif" font-size="13.00">Generated by RailRoady 1.1.1</text>
<text text-anchor="start" x="944" y="-6.6" font-family="Times,serif" font-size="13.00">http://railroady.prestonlee.com</text>
</g>
<!-- AdminsController -->
<g id="node2" class="node"><title>AdminsController</title>
<path fill="none" stroke="black" d="M12,-373.179C12,-373.179 105.883,-373.179 105.883,-373.179 111.883,-373.179 117.883,-379.179 117.883,-385.179 117.883,-385.179 117.883,-451.179 117.883,-451.179 117.883,-457.179 111.883,-463.179 105.883,-463.179 105.883,-463.179 12,-463.179 12,-463.179 6,-463.179 0,-457.179 0,-451.179 0,-451.179 0,-385.179 0,-385.179 0,-379.179 6,-373.179 12,-373.179"/>
<text text-anchor="middle" x="58.9414" y="-447.979" font-family="Times,serif" font-size="14.00">AdminsController</text>
<polyline fill="none" stroke="black" points="0,-441.179 117.883,-441.179 "/>
<text text-anchor="start" x="8" y="-425.979" font-family="Times,serif" font-size="14.00">index</text>
<polyline fill="none" stroke="black" points="0,-419.179 117.883,-419.179 "/>
<polyline fill="none" stroke="black" points="0,-395.179 117.883,-395.179 "/>
<text text-anchor="start" x="8" y="-379.979" font-family="Times,serif" font-size="14.00">_layout</text>
</g>
<!-- Api::ApplicationController -->
<g id="node3" class="node"><title>Api::ApplicationController</title>
<path fill="none" stroke="black" d="M472.506,-230.883C472.506,-230.883 616.927,-230.883 616.927,-230.883 622.927,-230.883 628.927,-236.883 628.927,-242.883 628.927,-242.883 628.927,-336.883 628.927,-336.883 628.927,-342.883 622.927,-348.883 616.927,-348.883 616.927,-348.883 472.506,-348.883 472.506,-348.883 466.506,-348.883 460.506,-342.883 460.506,-336.883 460.506,-336.883 460.506,-242.883 460.506,-242.883 460.506,-236.883 466.506,-230.883 472.506,-230.883"/>
<text text-anchor="middle" x="544.717" y="-333.683" font-family="Times,serif" font-size="14.00">Api::ApplicationController</text>
<polyline fill="none" stroke="black" points="460.506,-326.883 628.927,-326.883 "/>
<text text-anchor="start" x="468.506" y="-311.683" font-family="Times,serif" font-size="14.00">error</text>
<text text-anchor="start" x="468.506" y="-297.683" font-family="Times,serif" font-size="14.00">invalid_request</text>
<text text-anchor="start" x="468.506" y="-283.683" font-family="Times,serif" font-size="14.00">record_not_found</text>
<polyline fill="none" stroke="black" points="460.506,-276.883 628.927,-276.883 "/>
<polyline fill="none" stroke="black" points="460.506,-252.883 628.927,-252.883 "/>
<text text-anchor="start" x="468.506" y="-237.683" font-family="Times,serif" font-size="14.00">_layout</text>
</g>
<!-- Api::CustomersController -->
<g id="node4" class="node"><title>Api::CustomersController</title>
<path fill="none" stroke="black" d="M666.223,-75.7281C666.223,-75.7281 804.437,-75.7281 804.437,-75.7281 810.437,-75.7281 816.437,-81.7281 816.437,-87.7281 816.437,-87.7281 816.437,-153.728 816.437,-153.728 816.437,-159.728 810.437,-165.728 804.437,-165.728 804.437,-165.728 666.223,-165.728 666.223,-165.728 660.223,-165.728 654.223,-159.728 654.223,-153.728 654.223,-153.728 654.223,-87.7281 654.223,-87.7281 654.223,-81.7281 660.223,-75.7281 666.223,-75.7281"/>
<text text-anchor="middle" x="735.33" y="-150.528" font-family="Times,serif" font-size="14.00">Api::CustomersController</text>
<polyline fill="none" stroke="black" points="654.223,-143.728 816.437,-143.728 "/>
<text text-anchor="start" x="662.223" y="-128.528" font-family="Times,serif" font-size="14.00">index</text>
<polyline fill="none" stroke="black" points="654.223,-121.728 816.437,-121.728 "/>
<polyline fill="none" stroke="black" points="654.223,-97.7281 816.437,-97.7281 "/>
<text text-anchor="start" x="662.223" y="-82.5281" font-family="Times,serif" font-size="14.00">_layout</text>
</g>
<!-- Api::ApplicationController&#45;&gt;Api::CustomersController -->
<g id="edge3" class="edge"><title>Api::ApplicationController&#45;&gt;Api::CustomersController</title>
<path fill="none" stroke="black" d="M611.384,-230.721C635.325,-209.475 661.924,-185.871 684.324,-165.992"/>
</g>
<!-- ApplicationController -->
<g id="node5" class="node"><title>ApplicationController</title>
<path fill="none" stroke="black" d="M211.144,-570.398C211.144,-570.398 389.779,-570.398 389.779,-570.398 395.779,-570.398 401.779,-576.398 401.779,-582.398 401.779,-582.398 401.779,-690.398 401.779,-690.398 401.779,-696.398 395.779,-702.398 389.779,-702.398 389.779,-702.398 211.144,-702.398 211.144,-702.398 205.144,-702.398 199.144,-696.398 199.144,-690.398 199.144,-690.398 199.144,-582.398 199.144,-582.398 199.144,-576.398 205.144,-570.398 211.144,-570.398"/>
<text text-anchor="middle" x="300.461" y="-687.198" font-family="Times,serif" font-size="14.00">ApplicationController</text>
<polyline fill="none" stroke="black" points="199.144,-680.398 401.779,-680.398 "/>
<text text-anchor="start" x="207.144" y="-665.198" font-family="Times,serif" font-size="14.00">_one_time_conditions_valid_12?</text>
<text text-anchor="start" x="207.144" y="-651.198" font-family="Times,serif" font-size="14.00">_one_time_conditions_valid_14?</text>
<polyline fill="none" stroke="black" points="199.144,-644.398 401.779,-644.398 "/>
<polyline fill="none" stroke="black" points="199.144,-620.398 401.779,-620.398 "/>
<text text-anchor="start" x="207.144" y="-605.198" font-family="Times,serif" font-size="14.00">_layout</text>
<text text-anchor="start" x="207.144" y="-591.198" font-family="Times,serif" font-size="14.00">current_user</text>
<text text-anchor="start" x="207.144" y="-577.198" font-family="Times,serif" font-size="14.00">find_employee</text>
</g>
<!-- ApplicationController&#45;&gt;AdminsController -->
<g id="edge1" class="edge"><title>ApplicationController&#45;&gt;AdminsController</title>
<path fill="none" stroke="black" d="M227.342,-570.333C189.022,-535.71 143.081,-494.201 108.87,-463.291"/>
</g>
<!-- ApplicationController&#45;&gt;Api::ApplicationController -->
<g id="edge2" class="edge"><title>ApplicationController&#45;&gt;Api::ApplicationController</title>
<path fill="none" stroke="black" d="M381.237,-570.364C404.498,-548.787 428.642,-523.636 447.458,-497.611 480.706,-451.626 507.075,-392.471 523.921,-349.056"/>
</g>
<!-- AssignmentsController -->
<g id="node6" class="node"><title>AssignmentsController</title>
<path fill="none" stroke="black" d="M462.856,-635.272C462.856,-635.272 584.739,-635.272 584.739,-635.272 590.739,-635.272 596.739,-641.272 596.739,-647.272 596.739,-647.272 596.739,-797.272 596.739,-797.272 596.739,-803.272 590.739,-809.272 584.739,-809.272 584.739,-809.272 462.856,-809.272 462.856,-809.272 456.856,-809.272 450.856,-803.272 450.856,-797.272 450.856,-797.272 450.856,-647.272 450.856,-647.272 450.856,-641.272 456.856,-635.272 462.856,-635.272"/>
<text text-anchor="middle" x="523.798" y="-794.072" font-family="Times,serif" font-size="14.00">AssignmentsController</text>
<polyline fill="none" stroke="black" points="450.856,-787.272 596.739,-787.272 "/>
<text text-anchor="start" x="458.856" y="-772.072" font-family="Times,serif" font-size="14.00">calc</text>
<text text-anchor="start" x="458.856" y="-758.072" font-family="Times,serif" font-size="14.00">date</text>
<text text-anchor="start" x="458.856" y="-744.072" font-family="Times,serif" font-size="14.00">edit</text>
<text text-anchor="start" x="458.856" y="-730.072" font-family="Times,serif" font-size="14.00">index</text>
<text text-anchor="start" x="458.856" y="-716.072" font-family="Times,serif" font-size="14.00">new</text>
<text text-anchor="start" x="458.856" y="-702.072" font-family="Times,serif" font-size="14.00">time_change</text>
<text text-anchor="start" x="458.856" y="-688.072" font-family="Times,serif" font-size="14.00">update</text>
<polyline fill="none" stroke="black" points="450.856,-681.272 596.739,-681.272 "/>
<polyline fill="none" stroke="black" points="450.856,-657.272 596.739,-657.272 "/>
<text text-anchor="start" x="458.856" y="-642.072" font-family="Times,serif" font-size="14.00">_layout</text>
</g>
<!-- ApplicationController&#45;&gt;AssignmentsController -->
<g id="edge4" class="edge"><title>ApplicationController&#45;&gt;AssignmentsController</title>
<path fill="none" stroke="black" d="M402,-675.44C418.363,-681.732 435.018,-688.136 450.544,-694.106"/>
</g>
<!-- ByEmployeeController -->
<g id="node7" class="node"><title>ByEmployeeController</title>
<path fill="none" stroke="black" d="M38.1316,-812.652C38.1316,-812.652 160.773,-812.652 160.773,-812.652 166.773,-812.652 172.773,-818.652 172.773,-824.652 172.773,-824.652 172.773,-974.652 172.773,-974.652 172.773,-980.652 166.773,-986.652 160.773,-986.652 160.773,-986.652 38.1316,-986.652 38.1316,-986.652 32.1316,-986.652 26.1316,-980.652 26.1316,-974.652 26.1316,-974.652 26.1316,-824.652 26.1316,-824.652 26.1316,-818.652 32.1316,-812.652 38.1316,-812.652"/>
<text text-anchor="middle" x="99.4524" y="-971.452" font-family="Times,serif" font-size="14.00">ByEmployeeController</text>
<polyline fill="none" stroke="black" points="26.1316,-964.652 172.773,-964.652 "/>
<text text-anchor="start" x="34.1316" y="-949.452" font-family="Times,serif" font-size="14.00">calc_totals</text>
<text text-anchor="start" x="34.1316" y="-935.452" font-family="Times,serif" font-size="14.00">date</text>
<text text-anchor="start" x="34.1316" y="-921.452" font-family="Times,serif" font-size="14.00">daterefresh</text>
<text text-anchor="start" x="34.1316" y="-907.452" font-family="Times,serif" font-size="14.00">index</text>
<text text-anchor="start" x="34.1316" y="-893.452" font-family="Times,serif" font-size="14.00">show</text>
<text text-anchor="start" x="34.1316" y="-879.452" font-family="Times,serif" font-size="14.00">summary</text>
<text text-anchor="start" x="34.1316" y="-865.452" font-family="Times,serif" font-size="14.00">totals</text>
<polyline fill="none" stroke="black" points="26.1316,-858.652 172.773,-858.652 "/>
<polyline fill="none" stroke="black" points="26.1316,-834.652 172.773,-834.652 "/>
<text text-anchor="start" x="34.1316" y="-819.452" font-family="Times,serif" font-size="14.00">_layout</text>
</g>
<!-- ApplicationController&#45;&gt;ByEmployeeController -->
<g id="edge5" class="edge"><title>ApplicationController&#45;&gt;ByEmployeeController</title>
<path fill="none" stroke="black" d="M249.998,-702.488C224.529,-735.843 193.305,-776.736 165.908,-812.617"/>
</g>
<!-- ClaimsController -->
<g id="node8" class="node"><title>ClaimsController</title>
<path fill="none" stroke="black" d="M42.2608,-66.5688C42.2608,-66.5688 131.475,-66.5688 131.475,-66.5688 137.475,-66.5688 143.475,-72.5688 143.475,-78.5688 143.475,-78.5688 143.475,-186.569 143.475,-186.569 143.475,-192.569 137.475,-198.569 131.475,-198.569 131.475,-198.569 42.2608,-198.569 42.2608,-198.569 36.2608,-198.569 30.2608,-192.569 30.2608,-186.569 30.2608,-186.569 30.2608,-78.5688 30.2608,-78.5688 30.2608,-72.5688 36.2608,-66.5688 42.2608,-66.5688"/>
<text text-anchor="middle" x="86.8677" y="-183.369" font-family="Times,serif" font-size="14.00">ClaimsController</text>
<polyline fill="none" stroke="black" points="30.2608,-176.569 143.475,-176.569 "/>
<text text-anchor="start" x="38.2608" y="-161.369" font-family="Times,serif" font-size="14.00">index</text>
<text text-anchor="start" x="38.2608" y="-147.369" font-family="Times,serif" font-size="14.00">paid</text>
<text text-anchor="start" x="38.2608" y="-133.369" font-family="Times,serif" font-size="14.00">show</text>
<text text-anchor="start" x="38.2608" y="-119.369" font-family="Times,serif" font-size="14.00">submitted</text>
<polyline fill="none" stroke="black" points="30.2608,-112.569 143.475,-112.569 "/>
<polyline fill="none" stroke="black" points="30.2608,-88.5688 143.475,-88.5688 "/>
<text text-anchor="start" x="38.2608" y="-73.3688" font-family="Times,serif" font-size="14.00">_layout</text>
</g>
<!-- ApplicationController&#45;&gt;ClaimsController -->
<g id="edge6" class="edge"><title>ApplicationController&#45;&gt;ClaimsController</title>
<path fill="none" stroke="black" d="M261.95,-570.02C239.366,-529.642 211.177,-476.602 189.856,-427.755 156.309,-350.9 125.742,-259.295 106.778,-198.737"/>
</g>
<!-- CostcodesController -->
<g id="node9" class="node"><title>CostcodesController</title>
<path fill="none" stroke="black" d="M722.062,-304.597C722.062,-304.597 829.159,-304.597 829.159,-304.597 835.159,-304.597 841.159,-310.597 841.159,-316.597 841.159,-316.597 841.159,-466.597 841.159,-466.597 841.159,-472.597 835.159,-478.597 829.159,-478.597 829.159,-478.597 722.062,-478.597 722.062,-478.597 716.062,-478.597 710.062,-472.597 710.062,-466.597 710.062,-466.597 710.062,-316.597 710.062,-316.597 710.062,-310.597 716.062,-304.597 722.062,-304.597"/>
<text text-anchor="middle" x="775.61" y="-463.397" font-family="Times,serif" font-size="14.00">CostcodesController</text>
<polyline fill="none" stroke="black" points="710.062,-456.597 841.159,-456.597 "/>
<text text-anchor="start" x="718.062" y="-441.397" font-family="Times,serif" font-size="14.00">create</text>
<text text-anchor="start" x="718.062" y="-427.397" font-family="Times,serif" font-size="14.00">destroy</text>
<text text-anchor="start" x="718.062" y="-413.397" font-family="Times,serif" font-size="14.00">edit</text>
<text text-anchor="start" x="718.062" y="-399.397" font-family="Times,serif" font-size="14.00">index</text>
<text text-anchor="start" x="718.062" y="-385.397" font-family="Times,serif" font-size="14.00">new</text>
<text text-anchor="start" x="718.062" y="-371.397" font-family="Times,serif" font-size="14.00">show</text>
<text text-anchor="start" x="718.062" y="-357.397" font-family="Times,serif" font-size="14.00">update</text>
<polyline fill="none" stroke="black" points="710.062,-350.597 841.159,-350.597 "/>
<polyline fill="none" stroke="black" points="710.062,-326.597 841.159,-326.597 "/>
<text text-anchor="start" x="718.062" y="-311.397" font-family="Times,serif" font-size="14.00">_layout</text>
</g>
<!-- ApplicationController&#45;&gt;CostcodesController -->
<g id="edge7" class="edge"><title>ApplicationController&#45;&gt;CostcodesController</title>
<path fill="none" stroke="black" d="M370.02,-570.273C426.626,-516.732 498.474,-449.503 506.777,-445.263 570.993,-412.472 653.355,-399.697 709.896,-394.731"/>
</g>
<!-- CustomersController -->
<g id="node10" class="node"><title>CustomersController</title>
<path fill="none" stroke="black" d="M205.056,-236.555C205.056,-236.555 314.491,-236.555 314.491,-236.555 320.491,-236.555 326.491,-242.555 326.491,-248.555 326.491,-248.555 326.491,-412.555 326.491,-412.555 326.491,-418.555 320.491,-424.555 314.491,-424.555 314.491,-424.555 205.056,-424.555 205.056,-424.555 199.056,-424.555 193.056,-418.555 193.056,-412.555 193.056,-412.555 193.056,-248.555 193.056,-248.555 193.056,-242.555 199.056,-236.555 205.056,-236.555"/>
<text text-anchor="middle" x="259.773" y="-409.355" font-family="Times,serif" font-size="14.00">CustomersController</text>
<polyline fill="none" stroke="black" points="193.056,-402.555 326.491,-402.555 "/>
<text text-anchor="start" x="201.056" y="-387.355" font-family="Times,serif" font-size="14.00">create</text>
<text text-anchor="start" x="201.056" y="-373.355" font-family="Times,serif" font-size="14.00">edit</text>
<text text-anchor="start" x="201.056" y="-359.355" font-family="Times,serif" font-size="14.00">export</text>
<text text-anchor="start" x="201.056" y="-345.355" font-family="Times,serif" font-size="14.00">index</text>
<text text-anchor="start" x="201.056" y="-331.355" font-family="Times,serif" font-size="14.00">invoice</text>
<text text-anchor="start" x="201.056" y="-317.355" font-family="Times,serif" font-size="14.00">new</text>
<text text-anchor="start" x="201.056" y="-303.355" font-family="Times,serif" font-size="14.00">show</text>
<text text-anchor="start" x="201.056" y="-289.355" font-family="Times,serif" font-size="14.00">update</text>
<polyline fill="none" stroke="black" points="193.056,-282.555 326.491,-282.555 "/>
<polyline fill="none" stroke="black" points="193.056,-258.555 326.491,-258.555 "/>
<text text-anchor="start" x="201.056" y="-243.355" font-family="Times,serif" font-size="14.00">_layout</text>
</g>
<!-- ApplicationController&#45;&gt;CustomersController -->
<g id="edge8" class="edge"><title>ApplicationController&#45;&gt;CustomersController</title>
<path fill="none" stroke="black" d="M291.633,-570.035C285.976,-527.519 278.55,-471.693 272.29,-424.638"/>
</g>
<!-- DaysController -->
<g id="node11" class="node"><title>DaysController</title>
<path fill="none" stroke="black" d="M353.941,-390.411C353.941,-390.411 432.258,-390.411 432.258,-390.411 438.258,-390.411 444.258,-396.411 444.258,-402.411 444.258,-402.411 444.258,-482.411 444.258,-482.411 444.258,-488.411 438.258,-494.411 432.258,-494.411 432.258,-494.411 353.941,-494.411 353.941,-494.411 347.941,-494.411 341.941,-488.411 341.941,-482.411 341.941,-482.411 341.941,-402.411 341.941,-402.411 341.941,-396.411 347.941,-390.411 353.941,-390.411"/>
<text text-anchor="middle" x="393.099" y="-479.211" font-family="Times,serif" font-size="14.00">DaysController</text>
<polyline fill="none" stroke="black" points="341.941,-472.411 444.258,-472.411 "/>
<text text-anchor="start" x="349.941" y="-457.211" font-family="Times,serif" font-size="14.00">index</text>
<text text-anchor="start" x="349.941" y="-443.211" font-family="Times,serif" font-size="14.00">new</text>
<polyline fill="none" stroke="black" points="341.941,-436.411 444.258,-436.411 "/>
<polyline fill="none" stroke="black" points="341.941,-412.411 444.258,-412.411 "/>
<text text-anchor="start" x="349.941" y="-397.211" font-family="Times,serif" font-size="14.00">_layout</text>
</g>
<!-- ApplicationController&#45;&gt;DaysController -->
<g id="edge9" class="edge"><title>ApplicationController&#45;&gt;DaysController</title>
<path fill="none" stroke="black" d="M332.083,-570.181C343.876,-545.485 357.088,-517.82 368.194,-494.564"/>
</g>
<!-- EmployeesController -->
<g id="node12" class="node"><title>EmployeesController</title>
<path fill="none" stroke="black" d="M341.048,-0.5C341.048,-0.5 452.8,-0.5 452.8,-0.5 458.8,-0.5 464.8,-6.5 464.8,-12.5 464.8,-12.5 464.8,-204.5 464.8,-204.5 464.8,-210.5 458.8,-216.5 452.8,-216.5 452.8,-216.5 341.048,-216.5 341.048,-216.5 335.048,-216.5 329.048,-210.5 329.048,-204.5 329.048,-204.5 329.048,-12.5 329.048,-12.5 329.048,-6.5 335.048,-0.5 341.048,-0.5"/>
<text text-anchor="middle" x="396.924" y="-201.3" font-family="Times,serif" font-size="14.00">EmployeesController</text>
<polyline fill="none" stroke="black" points="329.048,-194.5 464.8,-194.5 "/>
<text text-anchor="start" x="337.048" y="-179.3" font-family="Times,serif" font-size="14.00">assignments</text>
<text text-anchor="start" x="337.048" y="-165.3" font-family="Times,serif" font-size="14.00">create</text>
<text text-anchor="start" x="337.048" y="-151.3" font-family="Times,serif" font-size="14.00">edit</text>
<text text-anchor="start" x="337.048" y="-137.3" font-family="Times,serif" font-size="14.00">erase</text>
<text text-anchor="start" x="337.048" y="-123.3" font-family="Times,serif" font-size="14.00">index</text>
<text text-anchor="start" x="337.048" y="-109.3" font-family="Times,serif" font-size="14.00">new</text>
<text text-anchor="start" x="337.048" y="-95.3" font-family="Times,serif" font-size="14.00">project</text>
<text text-anchor="start" x="337.048" y="-81.3" font-family="Times,serif" font-size="14.00">projsummary</text>
<text text-anchor="start" x="337.048" y="-67.3" font-family="Times,serif" font-size="14.00">show</text>
<text text-anchor="start" x="337.048" y="-53.3" font-family="Times,serif" font-size="14.00">update</text>
<polyline fill="none" stroke="black" points="329.048,-46.5 464.8,-46.5 "/>
<polyline fill="none" stroke="black" points="329.048,-22.5 464.8,-22.5 "/>
<text text-anchor="start" x="337.048" y="-7.3" font-family="Times,serif" font-size="14.00">_layout</text>
</g>
<!-- ApplicationController&#45;&gt;EmployeesController -->
<g id="edge10" class="edge"><title>ApplicationController&#45;&gt;EmployeesController</title>
<path fill="none" stroke="black" d="M309.621,-570.394C316.841,-520.075 327.531,-449.122 338.741,-387.211 348.956,-330.789 361.86,-268.274 372.919,-216.772"/>
</g>
<!-- ExpensesController -->
<g id="node13" class="node"><title>ExpensesController</title>
<path fill="none" stroke="black" d="M13.1201,-557.987C13.1201,-557.987 115.541,-557.987 115.541,-557.987 121.541,-557.987 127.541,-563.987 127.541,-569.987 127.541,-569.987 127.541,-733.987 127.541,-733.987 127.541,-739.987 121.541,-745.987 115.541,-745.987 115.541,-745.987 13.1201,-745.987 13.1201,-745.987 7.12014,-745.987 1.12014,-739.987 1.12014,-733.987 1.12014,-733.987 1.12014,-569.987 1.12014,-569.987 1.12014,-563.987 7.12014,-557.987 13.1201,-557.987"/>
<text text-anchor="middle" x="64.3306" y="-730.787" font-family="Times,serif" font-size="14.00">ExpensesController</text>
<polyline fill="none" stroke="black" points="1.12014,-723.987 127.541,-723.987 "/>
<text text-anchor="start" x="9.12014" y="-708.787" font-family="Times,serif" font-size="14.00">create</text>
<text text-anchor="start" x="9.12014" y="-694.787" font-family="Times,serif" font-size="14.00">destroy</text>
<text text-anchor="start" x="9.12014" y="-680.787" font-family="Times,serif" font-size="14.00">edit</text>
<text text-anchor="start" x="9.12014" y="-666.787" font-family="Times,serif" font-size="14.00">entered</text>
<text text-anchor="start" x="9.12014" y="-652.787" font-family="Times,serif" font-size="14.00">index</text>
<text text-anchor="start" x="9.12014" y="-638.787" font-family="Times,serif" font-size="14.00">new</text>
<text text-anchor="start" x="9.12014" y="-624.787" font-family="Times,serif" font-size="14.00">show</text>
<text text-anchor="start" x="9.12014" y="-610.787" font-family="Times,serif" font-size="14.00">update</text>
<polyline fill="none" stroke="black" points="1.12014,-603.987 127.541,-603.987 "/>
<polyline fill="none" stroke="black" points="1.12014,-579.987 127.541,-579.987 "/>
<text text-anchor="start" x="9.12014" y="-564.787" font-family="Times,serif" font-size="14.00">_layout</text>
</g>
<!-- ApplicationController&#45;&gt;ExpensesController -->
<g id="edge11" class="edge"><title>ApplicationController&#45;&gt;ExpensesController</title>
<path fill="none" stroke="black" d="M198.95,-643.1C174.7,-644.701 149.5,-646.364 127.551,-647.814"/>
</g>
<!-- HomeController -->
<g id="node14" class="node"><title>HomeController</title>
<path fill="none" stroke="black" d="M732.236,-601.145C732.236,-601.145 815.994,-601.145 815.994,-601.145 821.994,-601.145 827.994,-607.145 827.994,-613.145 827.994,-613.145 827.994,-679.145 827.994,-679.145 827.994,-685.145 821.994,-691.145 815.994,-691.145 815.994,-691.145 732.236,-691.145 732.236,-691.145 726.236,-691.145 720.236,-685.145 720.236,-679.145 720.236,-679.145 720.236,-613.145 720.236,-613.145 720.236,-607.145 726.236,-601.145 732.236,-601.145"/>
<text text-anchor="middle" x="774.115" y="-675.945" font-family="Times,serif" font-size="14.00">HomeController</text>
<polyline fill="none" stroke="black" points="720.236,-669.145 827.994,-669.145 "/>
<text text-anchor="start" x="728.236" y="-653.945" font-family="Times,serif" font-size="14.00">show</text>
<polyline fill="none" stroke="black" points="720.236,-647.145 827.994,-647.145 "/>
<polyline fill="none" stroke="black" points="720.236,-623.145 827.994,-623.145 "/>
<text text-anchor="start" x="728.236" y="-607.945" font-family="Times,serif" font-size="14.00">_layout</text>
</g>
<!-- ApplicationController&#45;&gt;HomeController -->
<g id="edge12" class="edge"><title>ApplicationController&#45;&gt;HomeController</title>
<path fill="none" stroke="black" d="M401.805,-633.029C417.166,-632.631 432.83,-632.29 447.656,-632.072 515.33,-631.078 532.313,-629.345 599.939,-632.072 640.255,-633.698 685.692,-637.433 720.048,-640.647"/>
</g>
<!-- ProjectsController -->
<g id="node15" class="node"><title>ProjectsController</title>
<path fill="none" stroke="black" d="M680.642,-819.814C680.642,-819.814 775.291,-819.814 775.291,-819.814 781.291,-819.814 787.291,-825.814 787.291,-831.814 787.291,-831.814 787.291,-981.814 787.291,-981.814 787.291,-987.814 781.291,-993.814 775.291,-993.814 775.291,-993.814 680.642,-993.814 680.642,-993.814 674.642,-993.814 668.642,-987.814 668.642,-981.814 668.642,-981.814 668.642,-831.814 668.642,-831.814 668.642,-825.814 674.642,-819.814 680.642,-819.814"/>
<text text-anchor="middle" x="727.967" y="-978.614" font-family="Times,serif" font-size="14.00">ProjectsController</text>
<polyline fill="none" stroke="black" points="668.642,-971.814 787.291,-971.814 "/>
<text text-anchor="start" x="676.642" y="-956.614" font-family="Times,serif" font-size="14.00">create</text>
<text text-anchor="start" x="676.642" y="-942.614" font-family="Times,serif" font-size="14.00">destroy</text>
<text text-anchor="start" x="676.642" y="-928.614" font-family="Times,serif" font-size="14.00">edit</text>
<text text-anchor="start" x="676.642" y="-914.614" font-family="Times,serif" font-size="14.00">index</text>
<text text-anchor="start" x="676.642" y="-900.614" font-family="Times,serif" font-size="14.00">new</text>
<text text-anchor="start" x="676.642" y="-886.614" font-family="Times,serif" font-size="14.00">show</text>
<text text-anchor="start" x="676.642" y="-872.614" font-family="Times,serif" font-size="14.00">update</text>
<polyline fill="none" stroke="black" points="668.642,-865.814 787.291,-865.814 "/>
<polyline fill="none" stroke="black" points="668.642,-841.814 787.291,-841.814 "/>
<text text-anchor="start" x="676.642" y="-826.614" font-family="Times,serif" font-size="14.00">_layout</text>
</g>
<!-- ApplicationController&#45;&gt;ProjectsController -->
<g id="edge13" class="edge"><title>ApplicationController&#45;&gt;ProjectsController</title>
<path fill="none" stroke="black" d="M342.174,-702.42C368.466,-739.331 405.388,-783.581 447.656,-812.472 515.694,-858.977 608.6,-884.252 668.449,-896.638"/>
</g>
<!-- SessionsController -->
<g id="node16" class="node"><title>SessionsController</title>
<path fill="none" stroke="black" d="M346.236,-845.34C346.236,-845.34 444.015,-845.34 444.015,-845.34 450.015,-845.34 456.015,-851.34 456.015,-857.34 456.015,-857.34 456.015,-965.34 456.015,-965.34 456.015,-971.34 450.015,-977.34 444.015,-977.34 444.015,-977.34 346.236,-977.34 346.236,-977.34 340.236,-977.34 334.236,-971.34 334.236,-965.34 334.236,-965.34 334.236,-857.34 334.236,-857.34 334.236,-851.34 340.236,-845.34 346.236,-845.34"/>
<text text-anchor="middle" x="395.126" y="-962.14" font-family="Times,serif" font-size="14.00">SessionsController</text>
<polyline fill="none" stroke="black" points="334.236,-955.34 456.015,-955.34 "/>
<text text-anchor="start" x="342.236" y="-940.14" font-family="Times,serif" font-size="14.00">create</text>
<text text-anchor="start" x="342.236" y="-926.14" font-family="Times,serif" font-size="14.00">destroy</text>
<text text-anchor="start" x="342.236" y="-912.14" font-family="Times,serif" font-size="14.00">index</text>
<text text-anchor="start" x="342.236" y="-898.14" font-family="Times,serif" font-size="14.00">new</text>
<polyline fill="none" stroke="black" points="334.236,-891.34 456.015,-891.34 "/>
<polyline fill="none" stroke="black" points="334.236,-867.34 456.015,-867.34 "/>
<text text-anchor="start" x="342.236" y="-852.14" font-family="Times,serif" font-size="14.00">_layout</text>
</g>
<!-- ApplicationController&#45;&gt;SessionsController -->
<g id="edge14" class="edge"><title>ApplicationController&#45;&gt;SessionsController</title>
<path fill="none" stroke="black" d="M323.256,-702.603C338.137,-745.823 357.491,-802.033 372.365,-845.233"/>
</g>
<!-- UsersController -->
<g id="node17" class="node"><title>UsersController</title>
<path fill="none" stroke="black" d="M521.977,-448.463C521.977,-448.463 603.405,-448.463 603.405,-448.463 609.405,-448.463 615.405,-454.463 615.405,-460.463 615.405,-460.463 615.405,-582.463 615.405,-582.463 615.405,-588.463 609.405,-594.463 603.405,-594.463 603.405,-594.463 521.977,-594.463 521.977,-594.463 515.977,-594.463 509.977,-588.463 509.977,-582.463 509.977,-582.463 509.977,-460.463 509.977,-460.463 509.977,-454.463 515.977,-448.463 521.977,-448.463"/>
<text text-anchor="middle" x="562.691" y="-579.263" font-family="Times,serif" font-size="14.00">UsersController</text>
<polyline fill="none" stroke="black" points="509.977,-572.463 615.405,-572.463 "/>
<text text-anchor="start" x="517.977" y="-557.263" font-family="Times,serif" font-size="14.00">create</text>
<text text-anchor="start" x="517.977" y="-543.263" font-family="Times,serif" font-size="14.00">edit</text>
<text text-anchor="start" x="517.977" y="-529.263" font-family="Times,serif" font-size="14.00">index</text>
<text text-anchor="start" x="517.977" y="-515.263" font-family="Times,serif" font-size="14.00">new</text>
<text text-anchor="start" x="517.977" y="-501.263" font-family="Times,serif" font-size="14.00">update</text>
<polyline fill="none" stroke="black" points="509.977,-494.463 615.405,-494.463 "/>
<polyline fill="none" stroke="black" points="509.977,-470.463 615.405,-470.463 "/>
<text text-anchor="start" x="517.977" y="-455.263" font-family="Times,serif" font-size="14.00">_layout</text>
</g>
<!-- ApplicationController&#45;&gt;UsersController -->
<g id="edge15" class="edge"><title>ApplicationController&#45;&gt;UsersController</title>
<path fill="none" stroke="black" d="M401.846,-591.961C438.742,-575.79 478.953,-558.166 509.94,-544.584"/>
</g>
</g>
</svg>
