<?xml version="1.0" encoding="UTF-8" standalone="no"?>
<!DOCTYPE svg PUBLIC "-//W3C//DTD SVG 1.1//EN"
 "http://www.w3.org/Graphics/SVG/1.1/DTD/svg11.dtd">
<!-- Generated by graphviz version 2.36.0 (20140111.2315)
 -->
<!-- Title: models_diagram Pages: 1 -->
<svg width="471pt" height="356pt"
 viewBox="0.00 0.00 471.00 356.00" xmlns="http://www.w3.org/2000/svg" xmlns:xlink="http://www.w3.org/1999/xlink">
<g id="graph0" class="graph" transform="scale(1 1) rotate(0) translate(4 352)">
<title>models_diagram</title>
<polygon fill="white" stroke="none" points="-4,4 -4,-352 467,-352 467,4 -4,4"/>
<!-- _diagram_info -->
<g id="node1" class="node"><title>_diagram_info</title>
<text text-anchor="start" x="7.27979" y="-333.6" font-family="Times,serif" font-size="13.00">Models diagram</text>
<text text-anchor="start" x="7.27979" y="-320.6" font-family="Times,serif" font-size="13.00">Date: Jun 04 2014 &#45; 15:29</text>
<text text-anchor="start" x="7.27979" y="-307.6" font-family="Times,serif" font-size="13.00">Generated by RailRoady 1.1.1</text>
<text text-anchor="start" x="7.27979" y="-294.6" font-family="Times,serif" font-size="13.00">http://railroady.prestonlee.com</text>
</g>
<!-- Claim -->
<g id="node2" class="node"><title>Claim</title>
<ellipse fill="none" stroke="black" cx="299" cy="-162" rx="31.5839" ry="18"/>
<text text-anchor="middle" x="299" y="-157.8" font-family="Times,serif" font-size="14.00">Claim</text>
</g>
<!-- Expense -->
<g id="node9" class="node"><title>Expense</title>
<ellipse fill="none" stroke="black" cx="302" cy="-90" rx="40.0987" ry="18"/>
<text text-anchor="middle" x="302" y="-85.8" font-family="Times,serif" font-size="14.00">Expense</text>
</g>
<!-- Claim&#45;&gt;Expense -->
<g id="edge1" class="edge"><title>Claim&#45;&gt;Expense</title>
<path fill="none" stroke="#e838da" d="M293.571,-135.861C293.526,-130.032 293.765,-123.806 294.26,-117.905"/>
<ellipse fill="none" stroke="#e838da" cx="293.713" cy="-140.057" rx="4" ry="4"/>
<polygon fill="#e838da" stroke="#e838da" points="294.281,-117.724 299.89,-108.301 294.85,-112.757 295.419,-107.789 295.419,-107.789 295.419,-107.789 294.85,-112.757 290.948,-107.277 294.281,-117.724 294.281,-117.724"/>
</g>
<!-- Costcode -->
<g id="node3" class="node"><title>Costcode</title>
<ellipse fill="none" stroke="black" cx="120" cy="-90" rx="43.0291" ry="18"/>
<text text-anchor="middle" x="120" y="-85.8" font-family="Times,serif" font-size="14.00">Costcode</text>
</g>
<!-- Project -->
<g id="node10" class="node"><title>Project</title>
<ellipse fill="none" stroke="black" cx="120" cy="-162" rx="35.2345" ry="18"/>
<text text-anchor="middle" x="120" y="-157.8" font-family="Times,serif" font-size="14.00">Project</text>
</g>
<!-- Costcode&#45;&gt;Project -->
<g id="edge2" class="edge"><title>Costcode&#45;&gt;Project</title>
<path fill="none" stroke="#69df9a" d="M126.605,-118.355C126.803,-123.499 126.798,-128.873 126.591,-134.005"/>
<polygon fill="#69df9a" stroke="#69df9a" points="126.598,-118.252 130.402,-107.967 126.255,-113.264 125.913,-108.275 125.913,-108.275 125.913,-108.275 126.255,-113.264 121.423,-108.584 126.598,-118.252 126.598,-118.252"/>
<polygon fill="#69df9a" stroke="#69df9a" points="126.585,-134.08 121.389,-143.737 126.232,-139.067 125.878,-144.055 125.878,-144.055 125.878,-144.055 126.232,-139.067 130.367,-144.373 126.585,-134.08 126.585,-134.08"/>
</g>
<!-- Costcodeentry -->
<g id="node4" class="node"><title>Costcodeentry</title>
<ellipse fill="none" stroke="black" cx="214" cy="-18" rx="61.2852" ry="18"/>
<text text-anchor="middle" x="214" y="-13.8" font-family="Times,serif" font-size="14.00">Costcodeentry</text>
</g>
<!-- Entry -->
<g id="node8" class="node"><title>Entry</title>
<ellipse fill="none" stroke="black" cx="214" cy="-90" rx="29.1364" ry="18"/>
<text text-anchor="middle" x="214" y="-85.8" font-family="Times,serif" font-size="14.00">Entry</text>
</g>
<!-- Costcodeentry&#45;&gt;Entry -->
<g id="edge3" class="edge"><title>Costcodeentry&#45;&gt;Entry</title>
<path fill="none" stroke="#f6e5c4" d="M220.605,-46.3553C220.803,-51.4985 220.798,-56.8733 220.591,-62.0054"/>
<polygon fill="#f6e5c4" stroke="#f6e5c4" points="220.598,-46.2518 224.402,-35.9671 220.255,-41.2636 219.913,-36.2753 219.913,-36.2753 219.913,-36.2753 220.255,-41.2636 215.423,-36.5835 220.598,-46.2518 220.598,-46.2518"/>
<polygon fill="#f6e5c4" stroke="#f6e5c4" points="220.585,-62.08 215.389,-71.7367 220.232,-67.0675 219.878,-72.055 219.878,-72.055 219.878,-72.055 220.232,-67.0675 224.367,-72.3732 220.585,-62.08 220.585,-62.08"/>
</g>
<!-- Customer -->
<g id="node5" class="node"><title>Customer</title>
<ellipse fill="none" stroke="black" cx="112" cy="-234" rx="44.2443" ry="18"/>
<text text-anchor="middle" x="112" y="-229.8" font-family="Times,serif" font-size="14.00">Customer</text>
</g>
<!-- Customer&#45;&gt;Project -->
<g id="edge4" class="edge"><title>Customer&#45;&gt;Project</title>
<path fill="none" stroke="#298793" d="M114.898,-207.64C115.552,-201.92 116.248,-195.828 116.91,-190.042"/>
<ellipse fill="none" stroke="#298793" cx="114.432" cy="-211.722" rx="4.00001" ry="4.00001"/>
<polygon fill="#298793" stroke="#298793" points="116.91,-190.04 122.516,-180.615 117.477,-185.072 118.045,-180.104 118.045,-180.104 118.045,-180.104 117.477,-185.072 113.574,-179.593 116.91,-190.04 116.91,-190.04"/>
</g>
<!-- Day -->
<g id="node6" class="node"><title>Day</title>
<ellipse fill="none" stroke="black" cx="217" cy="-162" rx="27" ry="18"/>
<text text-anchor="middle" x="217" y="-157.8" font-family="Times,serif" font-size="14.00">Day</text>
</g>
<!-- Employee -->
<g id="node7" class="node"><title>Employee</title>
<ellipse fill="none" stroke="black" cx="220" cy="-234" rx="45.4404" ry="18"/>
<text text-anchor="middle" x="220" y="-229.8" font-family="Times,serif" font-size="14.00">Employee</text>
</g>
<!-- Day&#45;&gt;Employee -->
<g id="edge5" class="edge"><title>Day&#45;&gt;Employee</title>
<path fill="none" stroke="#a1f0e7" d="M224.745,-189.968C225.18,-195.176 225.416,-200.634 225.433,-205.848"/>
<polygon fill="#a1f0e7" stroke="#a1f0e7" points="224.717,-189.724 228.052,-179.278 224.149,-184.757 223.581,-179.789 223.581,-179.789 223.581,-179.789 224.149,-184.757 219.11,-180.3 224.717,-189.724 224.717,-189.724"/>
<polygon fill="#a1f0e7" stroke="#a1f0e7" points="225.427,-206.059 220.654,-215.931 225.29,-211.057 225.152,-216.055 225.152,-216.055 225.152,-216.055 225.29,-211.057 229.65,-216.179 225.427,-206.059 225.427,-206.059"/>
</g>
<!-- Day&#45;&gt;Entry -->
<g id="edge6" class="edge"><title>Day&#45;&gt;Entry</title>
<path fill="none" stroke="#a83b96" d="M209.449,-136.207C208.891,-130.36 208.586,-124.098 208.567,-118.153"/>
<ellipse fill="none" stroke="#a83b96" cx="209.965" cy="-140.44" rx="4.00001" ry="4.00001"/>
<polygon fill="#a83b96" stroke="#a83b96" points="208.572,-117.952 213.346,-108.08 208.71,-112.954 208.847,-107.956 208.847,-107.956 208.847,-107.956 208.71,-112.954 204.349,-107.832 208.572,-117.952 208.572,-117.952"/>
</g>
<!-- Employee&#45;&gt;Claim -->
<g id="edge10" class="edge"><title>Employee&#45;&gt;Claim</title>
<path fill="none" stroke="#8a5048" d="M244.169,-211.584C253.87,-202.989 265.031,-193.099 274.741,-184.496"/>
<ellipse fill="none" stroke="#8a5048" cx="240.92" cy="-214.463" rx="4.00002" ry="4.00002"/>
<polygon fill="#8a5048" stroke="#8a5048" points="275.007,-184.26 285.476,-180.996 278.749,-180.944 282.492,-177.628 282.492,-177.628 282.492,-177.628 278.749,-180.944 279.507,-174.26 275.007,-184.26 275.007,-184.26"/>
</g>
<!-- Employee&#45;&gt;Day -->
<g id="edge8" class="edge"><title>Employee&#45;&gt;Day</title>
<path fill="none" stroke="#5ca019" d="M212.417,-207.861C211.871,-202.032 211.577,-195.806 211.566,-189.905"/>
<ellipse fill="none" stroke="#5ca019" cx="212.921" cy="-212.083" rx="4.00001" ry="4.00001"/>
<polygon fill="#5ca019" stroke="#5ca019" points="211.57,-189.785 216.356,-179.919 211.714,-184.787 211.858,-179.789 211.858,-179.789 211.858,-179.789 211.714,-184.787 207.36,-179.659 211.57,-189.785 211.57,-189.785"/>
</g>
<!-- Employee&#45;&gt;Project -->
<g id="edge7" class="edge"><title>Employee&#45;&gt;Project</title>
<path fill="none" stroke="#085118" d="M189.727,-211.809C176.617,-202.632 161.352,-191.947 148.453,-182.917"/>
<polygon fill="#085118" stroke="#085118" points="190.109,-212.076 195.721,-221.498 194.205,-214.944 198.301,-217.811 198.301,-217.811 198.301,-217.811 194.205,-214.944 200.882,-214.124 190.109,-212.076 190.109,-212.076"/>
<polygon fill="#085118" stroke="#085118" points="148.149,-182.704 142.537,-173.283 144.053,-179.837 139.957,-176.97 139.957,-176.97 139.957,-176.97 144.053,-179.837 137.376,-180.656 148.149,-182.704 148.149,-182.704"/>
</g>
<!-- Projsummary -->
<g id="node11" class="node"><title>Projsummary</title>
<ellipse fill="none" stroke="black" cx="406" cy="-162" rx="57.1446" ry="18"/>
<text text-anchor="middle" x="406" y="-157.8" font-family="Times,serif" font-size="14.00">Projsummary</text>
</g>
<!-- Employee&#45;&gt;Projsummary -->
<g id="edge9" class="edge"><title>Employee&#45;&gt;Projsummary</title>
<path fill="none" stroke="#91d211" d="M259.618,-218.09C289.327,-206.909 330.024,-191.593 360.967,-179.948"/>
<ellipse fill="none" stroke="#91d211" cx="255.718" cy="-219.558" rx="4.00001" ry="4.00001"/>
<polygon fill="#91d211" stroke="#91d211" points="361.285,-179.828 372.229,-180.518 365.964,-178.067 370.644,-176.306 370.644,-176.306 370.644,-176.306 365.964,-178.067 369.059,-172.094 361.285,-179.828 361.285,-179.828"/>
</g>
<!-- Entry&#45;&gt;Costcodeentry -->
<g id="edge12" class="edge"><title>Entry&#45;&gt;Costcodeentry</title>
<path fill="none" stroke="#d649c3" d="M207.5,-63.9868C207.205,-58.2493 207.171,-52.1211 207.398,-46.2929"/>
<ellipse fill="none" stroke="#d649c3" cx="207.815" cy="-68.0668" rx="4" ry="4"/>
<polygon fill="#d649c3" stroke="#d649c3" points="207.4,-46.2517 212.577,-36.5844 207.744,-41.2635 208.087,-36.2753 208.087,-36.2753 208.087,-36.2753 207.744,-41.2635 203.598,-35.9662 207.4,-46.2517 207.4,-46.2517"/>
</g>
<!-- Entry&#45;&gt;Day -->
<g id="edge11" class="edge"><title>Entry&#45;&gt;Day</title>
<path fill="none" stroke="#35c640" d="M221.745,-117.968C222.18,-123.176 222.416,-128.634 222.433,-133.848"/>
<polygon fill="#35c640" stroke="#35c640" points="221.717,-117.724 225.052,-107.278 221.149,-112.757 220.581,-107.789 220.581,-107.789 220.581,-107.789 221.149,-112.757 216.11,-108.3 221.717,-117.724 221.717,-117.724"/>
<polygon fill="#35c640" stroke="#35c640" points="222.427,-134.059 217.654,-143.931 222.29,-139.057 222.152,-144.055 222.152,-144.055 222.152,-144.055 222.29,-139.057 226.65,-144.179 222.427,-134.059 222.427,-134.059"/>
</g>
<!-- Expense&#45;&gt;Claim -->
<g id="edge13" class="edge"><title>Expense&#45;&gt;Claim</title>
<path fill="none" stroke="#8b9da2" d="M307.432,-118.355C307.41,-123.499 307.175,-128.873 306.747,-134.005"/>
<polygon fill="#8b9da2" stroke="#8b9da2" points="307.43,-118.272 311.671,-108.159 307.301,-113.274 307.172,-108.275 307.172,-108.275 307.172,-108.275 307.301,-113.274 302.674,-108.391 307.43,-118.272 307.43,-118.272"/>
<polygon fill="#8b9da2" stroke="#8b9da2" points="306.735,-134.119 301.133,-143.546 306.17,-139.087 305.604,-144.055 305.604,-144.055 305.604,-144.055 306.17,-139.087 310.076,-144.564 306.735,-134.119 306.735,-134.119"/>
</g>
<!-- Project&#45;&gt;Costcode -->
<g id="edge14" class="edge"><title>Project&#45;&gt;Costcode</title>
<path fill="none" stroke="#3b39c5" d="M113.5,-135.987C113.205,-130.249 113.171,-124.121 113.398,-118.293"/>
<ellipse fill="none" stroke="#3b39c5" cx="113.815" cy="-140.067" rx="4" ry="4"/>
<polygon fill="#3b39c5" stroke="#3b39c5" points="113.4,-118.252 118.577,-108.584 113.744,-113.263 114.087,-108.275 114.087,-108.275 114.087,-108.275 113.744,-113.263 109.598,-107.966 113.4,-118.252 113.4,-118.252"/>
</g>
<!-- User -->
<g id="node12" class="node"><title>User</title>
<ellipse fill="none" stroke="black" cx="220" cy="-318" rx="27" ry="18"/>
<text text-anchor="middle" x="220" y="-313.8" font-family="Times,serif" font-size="14.00">User</text>
</g>
<!-- User&#45;&gt;Employee -->
<g id="edge15" class="edge"><title>User&#45;&gt;Employee</title>
<path fill="none" stroke="#601e7c" d="M220,-291.583C220,-281.652 220,-270.289 220,-260.364"/>
<ellipse fill="none" stroke="#601e7c" cx="220" cy="-295.61" rx="4" ry="4"/>
<ellipse fill="#601e7c" stroke="#601e7c" cx="220" cy="-256.084" rx="4" ry="4"/>
</g>
<!-- Utilities -->
<g id="node13" class="node"><title>Utilities</title>
<polygon fill="none" stroke="black" points="326.332,-336 265.668,-336 265.668,-300 326.332,-300 326.332,-336"/>
<text text-anchor="middle" x="296" y="-313.8" font-family="Times,serif" font-size="14.00">Utilities</text>
</g>
</g>
</svg>
