<?xml version="1.0" encoding="UTF-8" standalone="no"?>
<!DOCTYPE svg PUBLIC "-//W3C//DTD SVG 1.1//EN"
 "http://www.w3.org/Graphics/SVG/1.1/DTD/svg11.dtd">
<!-- Generated by graphviz version 2.36.0 (20140111.2315)
 -->
<!-- Title: models_diagram Pages: 1 -->
<svg width="836pt" height="928pt"
 viewBox="0.00 0.00 836.00 928.00" xmlns="http://www.w3.org/2000/svg" xmlns:xlink="http://www.w3.org/1999/xlink">
<g id="graph0" class="graph" transform="scale(1 1) rotate(0) translate(4 924)">
<title>models_diagram</title>
<polygon fill="white" stroke="none" points="-4,4 -4,-924 832,-924 832,4 -4,4"/>
<!-- _diagram_info -->
<g id="node1" class="node"><title>_diagram_info</title>
<text text-anchor="start" x="25.2798" y="-863.6" font-family="Times,serif" font-size="13.00">Models diagram</text>
<text text-anchor="start" x="25.2798" y="-850.6" font-family="Times,serif" font-size="13.00">Date: Jun 04 2014 &#45; 15:29</text>
<text text-anchor="start" x="25.2798" y="-837.6" font-family="Times,serif" font-size="13.00">Generated by RailRoady 1.1.1</text>
<text text-anchor="start" x="25.2798" y="-824.6" font-family="Times,serif" font-size="13.00">http://railroady.prestonlee.com</text>
</g>
<!-- Claim -->
<g id="node2" class="node"><title>Claim</title>
<path fill="none" stroke="black" d="M436.588,-389C436.588,-389 595.412,-389 595.412,-389 601.412,-389 607.412,-395 607.412,-401 607.412,-401 607.412,-491 607.412,-491 607.412,-497 601.412,-503 595.412,-503 595.412,-503 436.588,-503 436.588,-503 430.588,-503 424.588,-497 424.588,-491 424.588,-491 424.588,-401 424.588,-401 424.588,-395 430.588,-389 436.588,-389"/>
<text text-anchor="middle" x="516" y="-487.8" font-family="Times,serif" font-size="14.00">Claim</text>
<polyline fill="none" stroke="black" points="424.588,-481 607.412,-481 "/>
<text text-anchor="start" x="432.588" y="-465.8" font-family="Times,serif" font-size="14.00">_id :BSON::ObjectId</text>
<text text-anchor="start" x="432.588" y="-451.8" font-family="Times,serif" font-size="14.00">_type :String</text>
<text text-anchor="start" x="432.588" y="-437.8" font-family="Times,serif" font-size="14.00">created_at :Time</text>
<text text-anchor="start" x="432.588" y="-423.8" font-family="Times,serif" font-size="14.00">employee_id :Object</text>
<text text-anchor="start" x="432.588" y="-409.8" font-family="Times,serif" font-size="14.00">state :Symbol</text>
<text text-anchor="start" x="432.588" y="-395.8" font-family="Times,serif" font-size="14.00">updated_at :Time</text>
</g>
<!-- Expense -->
<g id="node9" class="node"><title>Expense</title>
<path fill="none" stroke="black" d="M433.874,-153C433.874,-153 626.126,-153 626.126,-153 632.126,-153 638.126,-159 638.126,-165 638.126,-165 638.126,-297 638.126,-297 638.126,-303 632.126,-309 626.126,-309 626.126,-309 433.874,-309 433.874,-309 427.874,-309 421.874,-303 421.874,-297 421.874,-297 421.874,-165 421.874,-165 421.874,-159 427.874,-153 433.874,-153"/>
<text text-anchor="middle" x="530" y="-293.8" font-family="Times,serif" font-size="14.00">Expense</text>
<polyline fill="none" stroke="black" points="421.874,-287 638.126,-287 "/>
<text text-anchor="start" x="429.874" y="-271.8" font-family="Times,serif" font-size="14.00">_id :BSON::ObjectId</text>
<text text-anchor="start" x="429.874" y="-257.8" font-family="Times,serif" font-size="14.00">_type :String</text>
<text text-anchor="start" x="429.874" y="-243.8" font-family="Times,serif" font-size="14.00">amt_cents :Integer</text>
<text text-anchor="start" x="429.874" y="-229.8" font-family="Times,serif" font-size="14.00">created_at :Time</text>
<text text-anchor="start" x="429.874" y="-215.8" font-family="Times,serif" font-size="14.00">customer :BSON::ObjectId</text>
<text text-anchor="start" x="429.874" y="-201.8" font-family="Times,serif" font-size="14.00">desc :String</text>
<text text-anchor="start" x="429.874" y="-187.8" font-family="Times,serif" font-size="14.00">entered :Boolean</text>
<text text-anchor="start" x="429.874" y="-173.8" font-family="Times,serif" font-size="14.00">expense_type :Symbol</text>
<text text-anchor="start" x="429.874" y="-159.8" font-family="Times,serif" font-size="14.00">updated_at :Time</text>
</g>
<!-- Claim&#45;&gt;Expense -->
<g id="edge1" class="edge"><title>Claim&#45;&gt;Expense</title>
<path fill="none" stroke="#16a04c" d="M513.975,-380.596C514.772,-361.218 516.061,-339.625 517.631,-319.036"/>
<ellipse fill="none" stroke="#16a04c" cx="513.817" cy="-384.761" rx="4" ry="4"/>
<polygon fill="#16a04c" stroke="#16a04c" points="517.634,-318.993 522.909,-309.379 518.028,-314.008 518.423,-309.024 518.423,-309.024 518.423,-309.024 518.028,-314.008 513.937,-308.669 517.634,-318.993 517.634,-318.993"/>
</g>
<!-- Costcode -->
<g id="node3" class="node"><title>Costcode</title>
<path fill="none" stroke="black" d="M11.5879,-174C11.5879,-174 170.412,-174 170.412,-174 176.412,-174 182.412,-180 182.412,-186 182.412,-186 182.412,-276 182.412,-276 182.412,-282 176.412,-288 170.412,-288 170.412,-288 11.5879,-288 11.5879,-288 5.58789,-288 -0.412109,-282 -0.412109,-276 -0.412109,-276 -0.412109,-186 -0.412109,-186 -0.412109,-180 5.58789,-174 11.5879,-174"/>
<text text-anchor="middle" x="91" y="-272.8" font-family="Times,serif" font-size="14.00">Costcode</text>
<polyline fill="none" stroke="black" points="-0.412109,-266 182.412,-266 "/>
<text text-anchor="start" x="7.58789" y="-250.8" font-family="Times,serif" font-size="14.00">_id :BSON::ObjectId</text>
<text text-anchor="start" x="7.58789" y="-236.8" font-family="Times,serif" font-size="14.00">_type :String</text>
<text text-anchor="start" x="7.58789" y="-222.8" font-family="Times,serif" font-size="14.00">code :String</text>
<text text-anchor="start" x="7.58789" y="-208.8" font-family="Times,serif" font-size="14.00">created_at :Time</text>
<text text-anchor="start" x="7.58789" y="-194.8" font-family="Times,serif" font-size="14.00">name :String</text>
<text text-anchor="start" x="7.58789" y="-180.8" font-family="Times,serif" font-size="14.00">updated_at :Time</text>
</g>
<!-- Project -->
<g id="node10" class="node"><title>Project</title>
<path fill="none" stroke="black" d="M11.5879,-368C11.5879,-368 170.412,-368 170.412,-368 176.412,-368 182.412,-374 182.412,-380 182.412,-380 182.412,-512 182.412,-512 182.412,-518 176.412,-524 170.412,-524 170.412,-524 11.5879,-524 11.5879,-524 5.58789,-524 -0.412109,-518 -0.412109,-512 -0.412109,-512 -0.412109,-380 -0.412109,-380 -0.412109,-374 5.58789,-368 11.5879,-368"/>
<text text-anchor="middle" x="91" y="-508.8" font-family="Times,serif" font-size="14.00">Project</text>
<polyline fill="none" stroke="black" points="-0.412109,-502 182.412,-502 "/>
<text text-anchor="start" x="7.58789" y="-486.8" font-family="Times,serif" font-size="14.00">_id :BSON::ObjectId</text>
<text text-anchor="start" x="7.58789" y="-472.8" font-family="Times,serif" font-size="14.00">_type :String</text>
<text text-anchor="start" x="7.58789" y="-458.8" font-family="Times,serif" font-size="14.00">billable :Boolean</text>
<text text-anchor="start" x="7.58789" y="-444.8" font-family="Times,serif" font-size="14.00">created_at :Time</text>
<text text-anchor="start" x="7.58789" y="-430.8" font-family="Times,serif" font-size="14.00">customer_id :Object</text>
<text text-anchor="start" x="7.58789" y="-416.8" font-family="Times,serif" font-size="14.00">desc :String</text>
<text text-anchor="start" x="7.58789" y="-402.8" font-family="Times,serif" font-size="14.00">employee_ids :Array</text>
<text text-anchor="start" x="7.58789" y="-388.8" font-family="Times,serif" font-size="14.00">name :String</text>
<text text-anchor="start" x="7.58789" y="-374.8" font-family="Times,serif" font-size="14.00">updated_at :Time</text>
</g>
<!-- Costcode&#45;&gt;Project -->
<g id="edge2" class="edge"><title>Costcode&#45;&gt;Project</title>
<path fill="none" stroke="#b0fbe6" d="M97.3058,-298.418C97.74,-317.128 97.8559,-337.77 97.6535,-357.512"/>
<polygon fill="#b0fbe6" stroke="#b0fbe6" points="97.301,-298.237 101.53,-288.119 97.1664,-293.238 97.0318,-288.24 97.0318,-288.24 97.0318,-288.24 97.1664,-293.238 92.5335,-288.361 97.301,-298.237 97.301,-298.237"/>
<polygon fill="#b0fbe6" stroke="#b0fbe6" points="97.6497,-357.802 93.018,-367.741 97.5837,-362.801 97.5176,-367.801 97.5176,-367.801 97.5176,-367.801 97.5837,-362.801 102.017,-367.86 97.6497,-357.802 97.6497,-357.802"/>
</g>
<!-- Costcodeentry -->
<g id="node4" class="node"><title>Costcodeentry</title>
<path fill="none" stroke="black" d="M207.043,-1C207.043,-1 396.957,-1 396.957,-1 402.957,-1 408.957,-7 408.957,-13 408.957,-13 408.957,-103 408.957,-103 408.957,-109 402.957,-115 396.957,-115 396.957,-115 207.043,-115 207.043,-115 201.043,-115 195.043,-109 195.043,-103 195.043,-103 195.043,-13 195.043,-13 195.043,-7 201.043,-1 207.043,-1"/>
<text text-anchor="middle" x="302" y="-99.8" font-family="Times,serif" font-size="14.00">Costcodeentry</text>
<polyline fill="none" stroke="black" points="195.043,-93 408.957,-93 "/>
<text text-anchor="start" x="203.043" y="-77.8" font-family="Times,serif" font-size="14.00">_id :BSON::ObjectId</text>
<text text-anchor="start" x="203.043" y="-63.8" font-family="Times,serif" font-size="14.00">_type :String</text>
<text text-anchor="start" x="203.043" y="-49.8" font-family="Times,serif" font-size="14.00">costcode :BSON::ObjectId</text>
<text text-anchor="start" x="203.043" y="-35.8" font-family="Times,serif" font-size="14.00">created_at :Time</text>
<text text-anchor="start" x="203.043" y="-21.8" font-family="Times,serif" font-size="14.00">hours :Float</text>
<text text-anchor="start" x="203.043" y="-7.8" font-family="Times,serif" font-size="14.00">updated_at :Time</text>
</g>
<!-- Entry -->
<g id="node8" class="node"><title>Entry</title>
<path fill="none" stroke="black" d="M212.098,-167C212.098,-167 391.902,-167 391.902,-167 397.902,-167 403.902,-173 403.902,-179 403.902,-179 403.902,-283 403.902,-283 403.902,-289 397.902,-295 391.902,-295 391.902,-295 212.098,-295 212.098,-295 206.098,-295 200.098,-289 200.098,-283 200.098,-283 200.098,-179 200.098,-179 200.098,-173 206.098,-167 212.098,-167"/>
<text text-anchor="middle" x="302" y="-279.8" font-family="Times,serif" font-size="14.00">Entry</text>
<polyline fill="none" stroke="black" points="200.098,-273 403.902,-273 "/>
<text text-anchor="start" x="208.098" y="-257.8" font-family="Times,serif" font-size="14.00">_id :BSON::ObjectId</text>
<text text-anchor="start" x="208.098" y="-243.8" font-family="Times,serif" font-size="14.00">_type :String</text>
<text text-anchor="start" x="208.098" y="-229.8" font-family="Times,serif" font-size="14.00">created_at :Time</text>
<text text-anchor="start" x="208.098" y="-215.8" font-family="Times,serif" font-size="14.00">hours :Float</text>
<text text-anchor="start" x="208.098" y="-201.8" font-family="Times,serif" font-size="14.00">note :String</text>
<text text-anchor="start" x="208.098" y="-187.8" font-family="Times,serif" font-size="14.00">project :BSON::ObjectId</text>
<text text-anchor="start" x="208.098" y="-173.8" font-family="Times,serif" font-size="14.00">updated_at :Time</text>
</g>
<!-- Costcodeentry&#45;&gt;Entry -->
<g id="edge3" class="edge"><title>Costcodeentry&#45;&gt;Entry</title>
<path fill="none" stroke="#fd68ed" d="M308.597,-125.312C308.764,-135.619 308.794,-146.318 308.688,-156.767"/>
<polygon fill="#fd68ed" stroke="#fd68ed" points="308.593,-125.158 312.883,-115.066 308.489,-120.159 308.384,-115.16 308.384,-115.16 308.384,-115.16 308.489,-120.159 303.885,-115.255 308.593,-125.158 308.593,-125.158"/>
<polygon fill="#fd68ed" stroke="#fd68ed" points="308.687,-156.813 304.042,-166.746 308.614,-161.812 308.541,-166.812 308.541,-166.812 308.541,-166.812 308.614,-161.812 313.041,-166.877 308.687,-156.813 308.687,-156.813"/>
</g>
<!-- Customer -->
<g id="node5" class="node"><title>Customer</title>
<path fill="none" stroke="black" d="M11.5879,-611C11.5879,-611 170.412,-611 170.412,-611 176.412,-611 182.412,-617 182.412,-623 182.412,-623 182.412,-699 182.412,-699 182.412,-705 176.412,-711 170.412,-711 170.412,-711 11.5879,-711 11.5879,-711 5.58789,-711 -0.412109,-705 -0.412109,-699 -0.412109,-699 -0.412109,-623 -0.412109,-623 -0.412109,-617 5.58789,-611 11.5879,-611"/>
<text text-anchor="middle" x="91" y="-695.8" font-family="Times,serif" font-size="14.00">Customer</text>
<polyline fill="none" stroke="black" points="-0.412109,-689 182.412,-689 "/>
<text text-anchor="start" x="7.58789" y="-673.8" font-family="Times,serif" font-size="14.00">_id :BSON::ObjectId</text>
<text text-anchor="start" x="7.58789" y="-659.8" font-family="Times,serif" font-size="14.00">_type :String</text>
<text text-anchor="start" x="7.58789" y="-645.8" font-family="Times,serif" font-size="14.00">created_at :Time</text>
<text text-anchor="start" x="7.58789" y="-631.8" font-family="Times,serif" font-size="14.00">name :String</text>
<text text-anchor="start" x="7.58789" y="-617.8" font-family="Times,serif" font-size="14.00">updated_at :Time</text>
</g>
<!-- Customer&#45;&gt;Project -->
<g id="edge4" class="edge"><title>Customer&#45;&gt;Project</title>
<path fill="none" stroke="#6c425e" d="M91,-602.856C91,-581.828 91,-557.505 91,-534.418"/>
<ellipse fill="none" stroke="#6c425e" cx="91" cy="-606.866" rx="4" ry="4"/>
<polygon fill="#6c425e" stroke="#6c425e" points="91.0001,-534.264 95.5,-524.264 91,-529.264 91,-524.264 91,-524.264 91,-524.264 91,-529.264 86.5,-524.264 91.0001,-534.264 91.0001,-534.264"/>
</g>
<!-- Day -->
<g id="node6" class="node"><title>Day</title>
<path fill="none" stroke="black" d="M222.588,-396C222.588,-396 381.412,-396 381.412,-396 387.412,-396 393.412,-402 393.412,-408 393.412,-408 393.412,-484 393.412,-484 393.412,-490 387.412,-496 381.412,-496 381.412,-496 222.588,-496 222.588,-496 216.588,-496 210.588,-490 210.588,-484 210.588,-484 210.588,-408 210.588,-408 210.588,-402 216.588,-396 222.588,-396"/>
<text text-anchor="middle" x="302" y="-480.8" font-family="Times,serif" font-size="14.00">Day</text>
<polyline fill="none" stroke="black" points="210.588,-474 393.412,-474 "/>
<text text-anchor="start" x="218.588" y="-458.8" font-family="Times,serif" font-size="14.00">_id :BSON::ObjectId</text>
<text text-anchor="start" x="218.588" y="-444.8" font-family="Times,serif" font-size="14.00">_type :String</text>
<text text-anchor="start" x="218.588" y="-430.8" font-family="Times,serif" font-size="14.00">created_at :Time</text>
<text text-anchor="start" x="218.588" y="-416.8" font-family="Times,serif" font-size="14.00">date :Date</text>
<text text-anchor="start" x="218.588" y="-402.8" font-family="Times,serif" font-size="14.00">updated_at :Time</text>
</g>
<!-- Employee -->
<g id="node7" class="node"><title>Employee</title>
<path fill="none" stroke="black" d="M222.588,-583C222.588,-583 381.412,-583 381.412,-583 387.412,-583 393.412,-589 393.412,-595 393.412,-595 393.412,-727 393.412,-727 393.412,-733 387.412,-739 381.412,-739 381.412,-739 222.588,-739 222.588,-739 216.588,-739 210.588,-733 210.588,-727 210.588,-727 210.588,-595 210.588,-595 210.588,-589 216.588,-583 222.588,-583"/>
<text text-anchor="middle" x="302" y="-723.8" font-family="Times,serif" font-size="14.00">Employee</text>
<polyline fill="none" stroke="black" points="210.588,-717 393.412,-717 "/>
<text text-anchor="start" x="218.588" y="-701.8" font-family="Times,serif" font-size="14.00">_id :BSON::ObjectId</text>
<text text-anchor="start" x="218.588" y="-687.8" font-family="Times,serif" font-size="14.00">_type :String</text>
<text text-anchor="start" x="218.588" y="-673.8" font-family="Times,serif" font-size="14.00">billable_u :Float</text>
<text text-anchor="start" x="218.588" y="-659.8" font-family="Times,serif" font-size="14.00">created_at :Time</text>
<text text-anchor="start" x="218.588" y="-645.8" font-family="Times,serif" font-size="14.00">name :String</text>
<text text-anchor="start" x="218.588" y="-631.8" font-family="Times,serif" font-size="14.00">project_ids :Array</text>
<text text-anchor="start" x="218.588" y="-617.8" font-family="Times,serif" font-size="14.00">summ_refresh_date :Time</text>
<text text-anchor="start" x="218.588" y="-603.8" font-family="Times,serif" font-size="14.00">updated_at :Time</text>
<text text-anchor="start" x="218.588" y="-589.8" font-family="Times,serif" font-size="14.00">user_id :Object</text>
</g>
<!-- Day&#45;&gt;Employee -->
<g id="edge5" class="edge"><title>Day&#45;&gt;Employee</title>
<path fill="none" stroke="#aa792f" d="M308.121,-506.239C308.705,-526.758 308.882,-550.212 308.653,-572.516"/>
<polygon fill="#aa792f" stroke="#aa792f" points="308.116,-506.105 312.288,-495.964 307.953,-501.108 307.79,-496.11 307.79,-496.11 307.79,-496.11 307.953,-501.108 303.292,-496.257 308.116,-506.105 308.116,-506.105"/>
<polygon fill="#aa792f" stroke="#aa792f" points="308.65,-572.802 304.018,-582.741 308.584,-577.801 308.518,-582.801 308.518,-582.801 308.518,-582.801 308.584,-577.801 313.017,-582.86 308.65,-572.802 308.65,-572.802"/>
</g>
<!-- Day&#45;&gt;Entry -->
<g id="edge6" class="edge"><title>Day&#45;&gt;Entry</title>
<path fill="none" stroke="#1b6c13" d="M295.933,-387.588C295.175,-362.239 295.048,-332.14 295.552,-305.202"/>
<ellipse fill="none" stroke="#1b6c13" cx="296.076" cy="-391.868" rx="4" ry="4"/>
<polygon fill="#1b6c13" stroke="#1b6c13" points="295.556,-305.047 300.275,-295.149 295.666,-300.048 295.776,-295.049 295.776,-295.049 295.776,-295.049 295.666,-300.048 291.277,-294.95 295.556,-305.047 295.556,-305.047"/>
</g>
<!-- Employee&#45;&gt;Claim -->
<g id="edge10" class="edge"><title>Employee&#45;&gt;Claim</title>
<path fill="none" stroke="#7d9ff1" d="M385.487,-576.903C407.666,-554.828 431.263,-531.341 452.205,-510.496"/>
<ellipse fill="none" stroke="#7d9ff1" cx="382.397" cy="-579.979" rx="4.00002" ry="4.00002"/>
<polygon fill="#7d9ff1" stroke="#7d9ff1" points="452.408,-510.295 462.67,-506.43 455.952,-506.767 459.496,-503.24 459.496,-503.24 459.496,-503.24 455.952,-506.767 456.321,-500.051 452.408,-510.295 452.408,-510.295"/>
</g>
<!-- Employee&#45;&gt;Day -->
<g id="edge8" class="edge"><title>Employee&#45;&gt;Day</title>
<path fill="none" stroke="#1d838f" d="M295.369,-574.59C295.107,-551.666 295.277,-527.385 295.88,-506.227"/>
<ellipse fill="none" stroke="#1d838f" cx="295.427" cy="-578.801" rx="4" ry="4"/>
<polygon fill="#1d838f" stroke="#1d838f" points="295.884,-506.105 300.708,-496.257 296.047,-501.108 296.21,-496.11 296.21,-496.11 296.21,-496.11 296.047,-501.108 291.712,-495.964 295.884,-506.105 295.884,-506.105"/>
</g>
<!-- Employee&#45;&gt;Project -->
<g id="edge7" class="edge"><title>Employee&#45;&gt;Project</title>
<path fill="none" stroke="#646d2e" d="M218.392,-575.599C204.112,-561.184 189.273,-546.205 174.984,-531.78"/>
<polygon fill="#646d2e" stroke="#646d2e" points="218.488,-575.697 222.329,-585.968 222.007,-579.249 225.526,-582.801 225.526,-582.801 225.526,-582.801 222.007,-579.249 228.723,-579.634 218.488,-575.697 218.488,-575.697"/>
<polygon fill="#646d2e" stroke="#646d2e" points="174.605,-531.398 170.764,-521.126 171.086,-527.845 167.567,-524.293 167.567,-524.293 167.567,-524.293 171.086,-527.845 164.37,-527.46 174.605,-531.398 174.605,-531.398"/>
</g>
<!-- Projsummary -->
<g id="node11" class="node"><title>Projsummary</title>
<path fill="none" stroke="black" d="M637.098,-347C637.098,-347 816.902,-347 816.902,-347 822.902,-347 828.902,-353 828.902,-359 828.902,-359 828.902,-533 828.902,-533 828.902,-539 822.902,-545 816.902,-545 816.902,-545 637.098,-545 637.098,-545 631.098,-545 625.098,-539 625.098,-533 625.098,-533 625.098,-359 625.098,-359 625.098,-353 631.098,-347 637.098,-347"/>
<text text-anchor="middle" x="727" y="-529.8" font-family="Times,serif" font-size="14.00">Projsummary</text>
<polyline fill="none" stroke="black" points="625.098,-523 828.902,-523 "/>
<text text-anchor="start" x="633.098" y="-507.8" font-family="Times,serif" font-size="14.00">_id :BSON::ObjectId</text>
<text text-anchor="start" x="633.098" y="-493.8" font-family="Times,serif" font-size="14.00">_type :String</text>
<text text-anchor="start" x="633.098" y="-479.8" font-family="Times,serif" font-size="14.00">created_at :Time</text>
<text text-anchor="start" x="633.098" y="-465.8" font-family="Times,serif" font-size="14.00">employee_id :Object</text>
<text text-anchor="start" x="633.098" y="-451.8" font-family="Times,serif" font-size="14.00">end_date :Date</text>
<text text-anchor="start" x="633.098" y="-437.8" font-family="Times,serif" font-size="14.00">hours_budget :Integer</text>
<text text-anchor="start" x="633.098" y="-423.8" font-family="Times,serif" font-size="14.00">project :BSON::ObjectId</text>
<text text-anchor="start" x="633.098" y="-409.8" font-family="Times,serif" font-size="14.00">rate_cents :Integer</text>
<text text-anchor="start" x="633.098" y="-395.8" font-family="Times,serif" font-size="14.00">start_date :Date</text>
<text text-anchor="start" x="633.098" y="-381.8" font-family="Times,serif" font-size="14.00">total_hours :Float</text>
<text text-anchor="start" x="633.098" y="-367.8" font-family="Times,serif" font-size="14.00">updated_at :Time</text>
<text text-anchor="start" x="633.098" y="-353.8" font-family="Times,serif" font-size="14.00">viewable :Boolean</text>
</g>
<!-- Employee&#45;&gt;Projsummary -->
<g id="edge9" class="edge"><title>Employee&#45;&gt;Projsummary</title>
<path fill="none" stroke="#f1e033" d="M401.406,-634.476C465.416,-615.546 548.892,-586.071 616,-546 616.094,-545.944 616.187,-545.888 616.281,-545.832"/>
<ellipse fill="none" stroke="#f1e033" cx="397.538" cy="-635.609" rx="4.00001" ry="4.00001"/>
<polygon fill="#f1e033" stroke="#f1e033" points="616.48,-545.707 627.342,-544.204 620.715,-543.05 624.95,-540.392 624.95,-540.392 624.95,-540.392 620.715,-543.05 622.559,-536.58 616.48,-545.707 616.48,-545.707"/>
</g>
<!-- Entry&#45;&gt;Costcodeentry -->
<g id="edge12" class="edge"><title>Entry&#45;&gt;Costcodeentry</title>
<path fill="none" stroke="#b60ca7" d="M295.335,-158.793C295.203,-147.759 295.225,-136.399 295.401,-125.475"/>
<ellipse fill="none" stroke="#b60ca7" cx="295.397" cy="-162.812" rx="4" ry="4"/>
<polygon fill="#b60ca7" stroke="#b60ca7" points="295.407,-125.158 300.115,-115.254 295.512,-120.159 295.616,-115.16 295.616,-115.16 295.616,-115.16 295.512,-120.159 291.117,-115.066 295.407,-125.158 295.407,-125.158"/>
</g>
<!-- Entry&#45;&gt;Day -->
<g id="edge11" class="edge"><title>Entry&#45;&gt;Day</title>
<path fill="none" stroke="#b4ab33" d="M308.45,-305.329C308.939,-331.583 308.83,-360.824 308.121,-385.739"/>
<polygon fill="#b4ab33" stroke="#b4ab33" points="308.444,-305.047 312.723,-294.95 308.334,-300.048 308.224,-295.049 308.224,-295.049 308.224,-295.049 308.334,-300.048 303.725,-295.148 308.444,-305.047 308.444,-305.047"/>
<polygon fill="#b4ab33" stroke="#b4ab33" points="308.117,-385.871 303.293,-395.719 307.954,-390.869 307.791,-395.866 307.791,-395.866 307.791,-395.866 307.954,-390.869 312.288,-396.013 308.117,-385.871 308.117,-385.871"/>
</g>
<!-- Expense&#45;&gt;Claim -->
<g id="edge13" class="edge"><title>Expense&#45;&gt;Claim</title>
<path fill="none" stroke="#9e1b33" d="M530.915,-319.27C529.82,-339.053 528.345,-359.751 526.678,-378.511"/>
<polygon fill="#9e1b33" stroke="#9e1b33" points="530.929,-319.01 535.946,-309.259 531.19,-314.017 531.452,-309.024 531.452,-309.024 531.452,-309.024 531.19,-314.017 526.958,-308.788 530.929,-319.01 530.929,-319.01"/>
<polygon fill="#9e1b33" stroke="#9e1b33" points="526.651,-378.801 521.248,-388.343 526.19,-383.779 525.729,-388.758 525.729,-388.758 525.729,-388.758 526.19,-383.779 530.209,-389.173 526.651,-378.801 526.651,-378.801"/>
</g>
<!-- Project&#45;&gt;Costcode -->
<g id="edge14" class="edge"><title>Project&#45;&gt;Costcode</title>
<path fill="none" stroke="#4f4478" d="M84.3704,-359.712C84.1362,-339.329 84.2437,-317.867 84.6929,-298.476"/>
<ellipse fill="none" stroke="#4f4478" cx="84.427" cy="-363.801" rx="4" ry="4"/>
<polygon fill="#4f4478" stroke="#4f4478" points="84.6992,-298.237 89.4665,-288.361 84.8337,-293.238 84.9682,-288.24 84.9682,-288.24 84.9682,-288.24 84.8337,-293.238 80.4698,-288.119 84.6992,-298.237 84.6992,-298.237"/>
</g>
<!-- User -->
<g id="node12" class="node"><title>User</title>
<path fill="none" stroke="black" d="M222.588,-777C222.588,-777 381.412,-777 381.412,-777 387.412,-777 393.412,-783 393.412,-789 393.412,-789 393.412,-907 393.412,-907 393.412,-913 387.412,-919 381.412,-919 381.412,-919 222.588,-919 222.588,-919 216.588,-919 210.588,-913 210.588,-907 210.588,-907 210.588,-789 210.588,-789 210.588,-783 216.588,-777 222.588,-777"/>
<text text-anchor="middle" x="302" y="-903.8" font-family="Times,serif" font-size="14.00">User</text>
<polyline fill="none" stroke="black" points="210.588,-897 393.412,-897 "/>
<text text-anchor="start" x="218.588" y="-881.8" font-family="Times,serif" font-size="14.00">_id :BSON::ObjectId</text>
<text text-anchor="start" x="218.588" y="-867.8" font-family="Times,serif" font-size="14.00">_type :String</text>
<text text-anchor="start" x="218.588" y="-853.8" font-family="Times,serif" font-size="14.00">created_at :Time</text>
<text text-anchor="start" x="218.588" y="-839.8" font-family="Times,serif" font-size="14.00">name :String</text>
<text text-anchor="start" x="218.588" y="-825.8" font-family="Times,serif" font-size="14.00">password_hash :String</text>
<text text-anchor="start" x="218.588" y="-811.8" font-family="Times,serif" font-size="14.00">password_salt :String</text>
<text text-anchor="start" x="218.588" y="-797.8" font-family="Times,serif" font-size="14.00">role :String</text>
<text text-anchor="start" x="218.588" y="-783.8" font-family="Times,serif" font-size="14.00">updated_at :Time</text>
</g>
<!-- User&#45;&gt;Employee -->
<g id="edge15" class="edge"><title>User&#45;&gt;Employee</title>
<path fill="none" stroke="#f30f66" d="M302,-768.676C302,-761.677 302,-754.567 302,-747.511"/>
<ellipse fill="none" stroke="#f30f66" cx="302" cy="-772.796" rx="4" ry="4"/>
<ellipse fill="#f30f66" stroke="#f30f66" cx="302" cy="-743.263" rx="4" ry="4"/>
</g>
<!-- Utilities -->
<g id="node13" class="node"><title>Utilities</title>
<polygon fill="none" stroke="black" points="411.445,-826 411.445,-870 472.555,-870 472.555,-826 411.445,-826"/>
<text text-anchor="middle" x="442" y="-854.8" font-family="Times,serif" font-size="14.00">Utilities</text>
<polyline fill="none" stroke="black" points="411.445,-848 472.555,-848 "/>
<text text-anchor="middle" x="442" y="-832.8" font-family="Times,serif" font-size="14.00"> </text>
</g>
</g>
</svg>
